<svg width="800" height="280" viewBox="0 0 800 280" fill="none" xmlns="http://www.w3.org/2000/svg">
  <!-- Background -->
  <rect width="800" height="280" rx="12" fill="#0A0A0A"/>
  <rect width="800" height="280" rx="12" stroke="#1A1A1A" stroke-width="1"/>
  
  <!-- Institutional Layer Label -->
  <text x="60" y="40" font-family="Inter, system-ui" font-size="11" font-weight="500" fill="#666" letter-spacing="0.5">INSTITUTIONAL LAYER</text>
  <line x1="60" y1="50" x2="380" y2="50" stroke="#222" stroke-width="1"/>
  
  <!-- DeFi Layer Label -->
  <text x="420" y="40" font-family="Inter, system-ui" font-size="11" font-weight="500" fill="#666" letter-spacing="0.5">DeFi LAYER</text>
  <line x1="420" y1="50" x2="740" y2="50" stroke="#222" stroke-width="1"/>
  
  <!-- BTC -->
  <g transform="translate(60, 80)">
    <rect width="100" height="80" rx="8" fill="#111" stroke="#222"/>
    <circle cx="50" cy="32" r="16" stroke="#F7931A" stroke-width="1.5" fill="none"/>
    <text x="50" y="38" font-family="Inter, system-ui" font-size="14" font-weight="600" fill="#F7931A" text-anchor="middle">₿</text>
    <text x="50" y="62" font-family="Inter, system-ui" font-size="12" font-weight="500" fill="#FFF" text-anchor="middle">BTC</text>
  </g>
  
  <!-- Arrow 1 -->
  <g transform="translate(170, 115)">
    <path d="M0 5 L30 5" stroke="#333" stroke-width="1.5"/>
    <path d="M25 0 L32 5 L25 10" stroke="#333" stroke-width="1.5" fill="none"/>
  </g>
  
  <!-- Sygnum -->
  <g transform="translate(210, 80)">
    <rect width="100" height="80" rx="8" fill="#111" stroke="#222"/>
    <rect x="35" y="20" width="30" height="24" rx="4" stroke="#A5E547" stroke-width="1.5" fill="none"/>
    <path d="M42 32 L58 32" stroke="#A5E547" stroke-width="1.5"/>
    <text x="50" y="62" font-family="Inter, system-ui" font-size="11" font-weight="500" fill="#FFF" text-anchor="middle">Sygnum</text>
  </g>
  
  <!-- Arrow 2 -->
  <g transform="translate(320, 115)">
    <path d="M0 5 L30 5" stroke="#333" stroke-width="1.5"/>
    <path d="M25 0 L32 5 L25 10" stroke="#333" stroke-width="1.5" fill="none"/>
  </g>
  
  <!-- iBTCY -->
  <g transform="translate(360, 80)">
    <rect width="100" height="80" rx="8" fill="#0D1F05" stroke="#A5E547" stroke-width="1.5"/>
    <text x="50" y="38" font-family="Inter, system-ui" font-size="14" font-weight="600" fill="#A5E547" text-anchor="middle">iBTCY</text>
    <text x="50" y="56" font-family="Inter, system-ui" font-size="10" fill="#666" text-anchor="middle">NAV-based</text>
  </g>
  
  <!-- Arrow 3 -->
  <g transform="translate(470, 115)">
    <path d="M0 5 L30 5" stroke="#A5E547" stroke-width="1.5"/>
    <path d="M25 0 L32 5 L25 10" stroke="#A5E547" stroke-width="1.5" fill="none"/>
  </g>
  
  <!-- BTCY Vault -->
  <g transform="translate(510, 80)">
    <rect width="100" height="80" rx="8" fill="#111" stroke="#A5E547" stroke-width="1.5"/>
    <text x="50" y="38" font-family="Inter, system-ui" font-size="14" font-weight="600" fill="#A5E547" text-anchor="middle">BTCY</text>
    <text x="50" y="56" font-family="Inter, system-ui" font-size="10" fill="#666" text-anchor="middle">ERC-4626</text>
  </g>
  
  <!-- Arrow 4 -->
  <g transform="translate(620, 115)">
    <path d="M0 5 L30 5" stroke="#333" stroke-width="1.5"/>
    <path d="M25 0 L32 5 L25 10" stroke="#333" stroke-width="1.5" fill="none"/>
  </g>
  
  <!-- DeFi -->
  <g transform="translate(660, 80)">
    <rect width="80" height="80" rx="8" fill="#111" stroke="#222"/>
    <circle cx="40" cy="35" r="12" stroke="#666" stroke-width="1" fill="none"/>
    <circle cx="28" cy="35" r="6" stroke="#666" stroke-width="1" fill="none"/>
    <circle cx="52" cy="35" r="6" stroke="#666" stroke-width="1" fill="none"/>
    <text x="40" y="62" font-family="Inter, system-ui" font-size="10" fill="#666" text-anchor="middle">DeFi</text>
  </g>
  
  <!-- Labels below -->
  <text x="110" y="190" font-family="Inter, system-ui" font-size="10" fill="#444" text-anchor="middle">Deposit</text>
  <text x="260" y="190" font-family="Inter, system-ui" font-size="10" fill="#444" text-anchor="middle">Custody</text>
  <text x="410" y="190" font-family="Inter, system-ui" font-size="10" fill="#444" text-anchor="middle">Mint</text>
  <text x="560" y="190" font-family="Inter, system-ui" font-size="10" fill="#444" text-anchor="middle">Wrap</text>
  <text x="700" y="190" font-family="Inter, system-ui" font-size="10" fill="#444" text-anchor="middle">Use</text>
  
  <!-- Bottom info -->
  <g transform="translate(60, 220)">
    <rect width="680" height="40" rx="6" fill="#111" stroke="#1A1A1A"/>
    <circle cx="25" cy="20" r="8" stroke="#A5E547" stroke-width="1" fill="none"/>
    <path d="M22 20 L24 22 L28 18" stroke="#A5E547" stroke-width="1" stroke-linecap="round"/>
    <text x="45" y="24" font-family="Inter, system-ui" font-size="11" fill="#888">1:1 backing · Instant wrap/unwrap · Oracle-verified NAV</text>
  </g>
</svg>

