<svg width="700" height="200" viewBox="0 0 700 200" fill="none" xmlns="http://www.w3.org/2000/svg">
  <!-- Background -->
  <rect width="700" height="200" rx="12" fill="#FAFAFA"/>
  <rect width="700" height="200" rx="12" stroke="#E5E5E5" stroke-width="1"/>
  
  <!-- iBTCY -->
  <g transform="translate(40, 60)">
    <rect width="130" height="80" rx="8" fill="#F0FAE5" stroke="#7ACC33" stroke-width="1.5"/>
    <text x="65" y="35" font-family="Inter, monospace" font-size="13" font-weight="600" fill="#5BA020" text-anchor="middle">iBTCY</text>
    <text x="65" y="55" font-family="Inter, system-ui" font-size="10" fill="#888" text-anchor="middle">Security Token</text>
  </g>
  
  <!-- Arrow -->
  <g transform="translate(180, 95)">
    <path d="M0 5 L40 5" stroke="#CCC" stroke-width="1.5"/>
    <path d="M35 0 L42 5 L35 10" stroke="#CCC" stroke-width="1.5" fill="none"/>
  </g>
  
  <!-- iBTCYHub -->
  <g transform="translate(230, 60)">
    <rect width="130" height="80" rx="8" fill="#FFF" stroke="#DDD" stroke-width="1"/>
    <text x="65" y="35" font-family="Inter, monospace" font-size="13" font-weight="600" fill="#111" text-anchor="middle">iBTCYHub</text>
    <text x="65" y="55" font-family="Inter, system-ui" font-size="10" fill="#888" text-anchor="middle">Mint / Redeem</text>
  </g>
  
  <!-- Arrow to Pricer -->
  <g transform="translate(295, 145)">
    <path d="M0 0 L0 25" stroke="#CCC" stroke-width="1.5"/>
    <path d="M-5 20 L0 27 L5 20" stroke="#CCC" stroke-width="1.5" fill="none"/>
  </g>
  
  <!-- Pricer -->
  <g transform="translate(230, 170)">
    <rect width="130" height="30" rx="6" fill="#FFF" stroke="#DDD" stroke-width="1"/>
    <text x="65" y="20" font-family="Inter, monospace" font-size="11" fill="#888" text-anchor="middle">Pricer (Oracle)</text>
  </g>
  
  <!-- Arrow -->
  <g transform="translate(370, 95)">
    <path d="M0 5 L40 5" stroke="#7ACC33" stroke-width="1.5"/>
    <path d="M35 0 L42 5 L35 10" stroke="#7ACC33" stroke-width="1.5" fill="none"/>
  </g>
  
  <!-- BTCY Vault -->
  <g transform="translate(420, 60)">
    <rect width="130" height="80" rx="8" fill="#FFF" stroke="#7ACC33" stroke-width="1.5"/>
    <text x="65" y="35" font-family="Inter, monospace" font-size="13" font-weight="600" fill="#5BA020" text-anchor="middle">BTCY</text>
    <text x="65" y="55" font-family="Inter, system-ui" font-size="10" fill="#888" text-anchor="middle">ERC-4626 Vault</text>
  </g>
  
  <!-- Arrow -->
  <g transform="translate(560, 95)">
    <path d="M0 5 L40 5" stroke="#CCC" stroke-width="1.5"/>
    <path d="M35 0 L42 5 L35 10" stroke="#CCC" stroke-width="1.5" fill="none"/>
  </g>
  
  <!-- DeFi -->
  <g transform="translate(610, 60)">
    <rect width="70" height="80" rx="8" fill="#FFF" stroke="#E5E5E5" stroke-width="1"/>
    <text x="35" y="45" font-family="Inter, system-ui" font-size="11" fill="#888" text-anchor="middle">DeFi</text>
  </g>
</svg>

